# xmcd CD database file
#
# Track frame offsets:
#	150
#	22847
#	45202
#	66136
#	72893
#	90605
#	110340
#	126542
#	143786
#	161141
#	178360
#	190540
#
# Disc length: 2683 seconds
#
# Revision: 9
# Processed by: cddbd v1.5.1PL0 Copyright (c) Steve Scherf et al.
# Submitted via: CDex 1.51
#
DISCID=a10a790c
DTITLE=LOVE PSYCHEDELICO - LOVE PSYCHEDELIC ORCHESTRA
DYEAR=2002
DGENRE=JPop
TTITLE0=Standing Bird
TTITLE1=Free World
TTITLE2=unchained
TTITLE3=green
TTITLE4=dry town
TTITLE5=I will be with you
TTITLE6=days of days over you
TTITLE7=You ate it
TTITLE8=waltz
TTITLE9=life goes on
TTITLE10="0"
TTITLE11=California
EXTD=YEAR: 2002
EXTT0=
EXTT1=
EXTT2=
EXTT3=
EXTT4=
EXTT5=
EXTT6=
EXTT7=
EXTT8=
EXTT9=
EXTT10=
EXTT11=
PLAYORDER=
